<svg xmlns="http://www.w3.org/2000/svg" viewBox="0 0 1900 1000" shape-rendering="geometricPrecision">
<rect width="1900" height="1000" fill="#fff"/>
<rect y="0.0" width="1900" height="76.92307692307692" fill="#b22234"/>
<rect y="153.84615384615384" width="1900" height="76.92307692307692" fill="#b22234"/>
<rect y="307.6923076923077" width="1900" height="76.92307692307692" fill="#b22234"/>
<rect y="461.53846153846155" width="1900" height="76.92307692307692" fill="#b22234"/>
<rect y="615.3846153846154" width="1900" height="76.92307692307692" fill="#b22234"/>
<rect y="769.2307692307692" width="1900" height="76.92307692307692" fill="#b22234"/>
<rect y="923.0769230769231" width="1900" height="76.92307692307692" fill="#b22234"/>
<rect width="760.0" height="538.4615384615385" fill="#3c3b6e"/>
<polygon points="31.67,-3.88 24.75,17.40 2.37,17.41 20.48,30.56 13.56,51.84 31.67,38.69 49.77,51.84 42.86,30.56 60.96,17.41 38.58,17.40" fill="#fff"/>
<polygon points="95.00,-3.88 88.08,17.40 65.71,17.41 83.81,30.56 76.90,51.84 95.00,38.69 113.10,51.84 106.19,30.56 124.29,17.41 101.92,17.40" fill="#fff"/>
<polygon points="158.33,-3.88 151.42,17.40 129.04,17.41 147.14,30.56 140.23,51.84 158.33,38.69 176.44,51.84 169.52,30.56 187.63,17.41 165.25,17.40" fill="#fff"/>
<polygon points="221.67,-3.88 214.75,17.40 192.37,17.41 210.48,30.56 203.56,51.84 221.67,38.69 239.77,51.84 232.86,30.56 250.96,17.41 228.58,17.40" fill="#fff"/>
<polygon points="285.00,-3.88 278.08,17.40 255.71,17.41 273.81,30.56 266.90,51.84 285.00,38.69 303.10,51.84 296.19,30.56 314.29,17.41 291.92,17.40" fill="#fff"/>
<polygon points="348.33,-3.88 341.42,17.40 319.04,17.41 337.14,30.56 330.23,51.84 348.33,38.69 366.44,51.84 359.52,30.56 377.63,17.41 355.25,17.40" fill="#fff"/>
<polygon points="63.33,49.97 56.42,71.25 34.04,71.25 52.14,84.41 45.23,105.69 63.33,92.53 81.44,105.69 74.52,84.41 92.63,71.25 70.25,71.25" fill="#fff"/>
<polygon points="126.67,49.97 119.75,71.25 97.37,71.25 115.48,84.41 108.56,105.69 126.67,92.53 144.77,105.69 137.86,84.41 155.96,71.25 133.58,71.25" fill="#fff"/>
<polygon points="190.00,49.97 183.08,71.25 160.71,71.25 178.81,84.41 171.90,105.69 190.00,92.53 208.10,105.69 201.19,84.41 219.29,71.25 196.92,71.25" fill="#fff"/>
<polygon points="253.33,49.97 246.42,71.25 224.04,71.25 242.14,84.41 235.23,105.69 253.33,92.53 271.44,105.69 264.52,84.41 282.63,71.25 260.25,71.25" fill="#fff"/>
<polygon points="316.67,49.97 309.75,71.25 287.37,71.25 305.48,84.41 298.56,105.69 316.67,92.53 334.77,105.69 327.86,84.41 345.96,71.25 323.58,71.25" fill="#fff"/>
<polygon points="31.67,103.82 24.75,125.10 2.37,125.10 20.48,138.25 13.56,159.53 31.67,146.38 49.77,159.53 42.86,138.25 60.96,125.10 38.58,125.10" fill="#fff"/>
<polygon points="95.00,103.82 88.08,125.10 65.71,125.10 83.81,138.25 76.90,159.53 95.00,146.38 113.10,159.53 106.19,138.25 124.29,125.10 101.92,125.10" fill="#fff"/>
<polygon points="158.33,103.82 151.42,125.10 129.04,125.10 147.14,138.25 140.23,159.53 158.33,146.38 176.44,159.53 169.52,138.25 187.63,125.10 165.25,125.10" fill="#fff"/>
<polygon points="221.67,103.82 214.75,125.10 192.37,125.10 210.48,138.25 203.56,159.53 221.67,146.38 239.77,159.53 232.86,138.25 250.96,125.10 228.58,125.10" fill="#fff"/>
<polygon points="285.00,103.82 278.08,125.10 255.71,125.10 273.81,138.25 266.90,159.53 285.00,146.38 303.10,159.53 296.19,138.25 314.29,125.10 291.92,125.10" fill="#fff"/>
<polygon points="348.33,103.82 341.42,125.10 319.04,125.10 337.14,138.25 330.23,159.53 348.33,146.38 366.44,159.53 359.52,138.25 377.63,125.10 355.25,125.10" fill="#fff"/>
<polygon points="63.33,157.66 56.42,178.94 34.04,178.94 52.14,192.10 45.23,213.38 63.33,200.23 81.44,213.38 74.52,192.10 92.63,178.94 70.25,178.94" fill="#fff"/>
<polygon points="126.67,157.66 119.75,178.94 97.37,178.94 115.48,192.10 108.56,213.38 126.67,200.23 144.77,213.38 137.86,192.10 155.96,178.94 133.58,178.94" fill="#fff"/>
<polygon points="190.00,157.66 183.08,178.94 160.71,178.94 178.81,192.10 171.90,213.38 190.00,200.23 208.10,213.38 201.19,192.10 219.29,178.94 196.92,178.94" fill="#fff"/>
<polygon points="253.33,157.66 246.42,178.94 224.04,178.94 242.14,192.10 235.23,213.38 253.33,200.23 271.44,213.38 264.52,192.10 282.63,178.94 260.25,178.94" fill="#fff"/>
<polygon points="316.67,157.66 309.75,178.94 287.37,178.94 305.48,192.10 298.56,213.38 316.67,200.23 334.77,213.38 327.86,192.10 345.96,178.94 323.58,178.94" fill="#fff"/>
<polygon points="31.67,211.51 24.75,232.79 2.37,232.79 20.48,245.94 13.56,267.23 31.67,254.07 49.77,267.23 42.86,245.94 60.96,232.79 38.58,232.79" fill="#fff"/>
<polygon points="95.00,211.51 88.08,232.79 65.71,232.79 83.81,245.94 76.90,267.23 95.00,254.07 113.10,267.23 106.19,245.94 124.29,232.79 101.92,232.79" fill="#fff"/>
<polygon points="158.33,211.51 151.42,232.79 129.04,232.79 147.14,245.94 140.23,267.23 158.33,254.07 176.44,267.23 169.52,245.94 187.63,232.79 165.25,232.79" fill="#fff"/>
<polygon points="221.67,211.51 214.75,232.79 192.37,232.79 210.48,245.94 203.56,267.23 221.67,254.07 239.77,267.23 232.86,245.94 250.96,232.79 228.58,232.79" fill="#fff"/>
<polygon points="285.00,211.51 278.08,232.79 255.71,232.79 273.81,245.94 266.90,267.23 285.00,254.07 303.10,267.23 296.19,245.94 314.29,232.79 291.92,232.79" fill="#fff"/>
<polygon points="348.33,211.51 341.42,232.79 319.04,232.79 337.14,245.94 330.23,267.23 348.33,254.07 366.44,267.23 359.52,245.94 377.63,232.79 355.25,232.79" fill="#fff"/>
<polygon points="63.33,265.35 56.42,286.64 34.04,286.64 52.14,299.79 45.23,321.07 63.33,307.92 81.44,321.07 74.52,299.79 92.63,286.64 70.25,286.64" fill="#fff"/>
<polygon points="126.67,265.35 119.75,286.64 97.37,286.64 115.48,299.79 108.56,321.07 126.67,307.92 144.77,321.07 137.86,299.79 155.96,286.64 133.58,286.64" fill="#fff"/>
<polygon points="190.00,265.35 183.08,286.64 160.71,286.64 178.81,299.79 171.90,321.07 190.00,307.92 208.10,321.07 201.19,299.79 219.29,286.64 196.92,286.64" fill="#fff"/>
<polygon points="253.33,265.35 246.42,286.64 224.04,286.64 242.14,299.79 235.23,321.07 253.33,307.92 271.44,321.07 264.52,299.79 282.63,286.64 260.25,286.64" fill="#fff"/>
<polygon points="316.67,265.35 309.75,286.64 287.37,286.64 305.48,299.79 298.56,321.07 316.67,307.92 334.77,321.07 327.86,299.79 345.96,286.64 323.58,286.64" fill="#fff"/>
<polygon points="31.67,319.20 24.75,340.48 2.37,340.48 20.48,353.64 13.56,374.92 31.67,361.77 49.77,374.92 42.86,353.64 60.96,340.48 38.58,340.48" fill="#fff"/>
<polygon points="95.00,319.20 88.08,340.48 65.71,340.48 83.81,353.64 76.90,374.92 95.00,361.77 113.10,374.92 106.19,353.64 124.29,340.48 101.92,340.48" fill="#fff"/>
<polygon points="158.33,319.20 151.42,340.48 129.04,340.48 147.14,353.64 140.23,374.92 158.33,361.77 176.44,374.92 169.52,353.64 187.63,340.48 165.25,340.48" fill="#fff"/>
<polygon points="221.67,319.20 214.75,340.48 192.37,340.48 210.48,353.64 203.56,374.92 221.67,361.77 239.77,374.92 232.86,353.64 250.96,340.48 228.58,340.48" fill="#fff"/>
<polygon points="285.00,319.20 278.08,340.48 255.71,340.48 273.81,353.64 266.90,374.92 285.00,361.77 303.10,374.92 296.19,353.64 314.29,340.48 291.92,340.48" fill="#fff"/>
<polygon points="348.33,319.20 341.42,340.48 319.04,340.48 337.14,353.64 330.23,374.92 348.33,361.77 366.44,374.92 359.52,353.64 377.63,340.48 355.25,340.48" fill="#fff"/>
<polygon points="63.33,373.05 56.42,394.33 34.04,394.33 52.14,407.48 45.23,428.76 63.33,415.61 81.44,428.76 74.52,407.48 92.63,394.33 70.25,394.33" fill="#fff"/>
<polygon points="126.67,373.05 119.75,394.33 97.37,394.33 115.48,407.48 108.56,428.76 126.67,415.61 144.77,428.76 137.86,407.48 155.96,394.33 133.58,394.33" fill="#fff"/>
<polygon points="190.00,373.05 183.08,394.33 160.71,394.33 178.81,407.48 171.90,428.76 190.00,415.61 208.10,428.76 201.19,407.48 219.29,394.33 196.92,394.33" fill="#fff"/>
<polygon points="253.33,373.05 246.42,394.33 224.04,394.33 242.14,407.48 235.23,428.76 253.33,415.61 271.44,428.76 264.52,407.48 282.63,394.33 260.25,394.33" fill="#fff"/>
<polygon points="316.67,373.05 309.75,394.33 287.37,394.33 305.48,407.48 298.56,428.76 316.67,415.61 334.77,428.76 327.86,407.48 345.96,394.33 323.58,394.33" fill="#fff"/>
<polygon points="31.67,426.89 24.75,448.17 2.37,448.17 20.48,461.33 13.56,482.61 31.67,469.46 49.77,482.61 42.86,461.33 60.96,448.17 38.58,448.17" fill="#fff"/>
<polygon points="95.00,426.89 88.08,448.17 65.71,448.17 83.81,461.33 76.90,482.61 95.00,469.46 113.10,482.61 106.19,461.33 124.29,448.17 101.92,448.17" fill="#fff"/>
<polygon points="158.33,426.89 151.42,448.17 129.04,448.17 147.14,461.33 140.23,482.61 158.33,469.46 176.44,482.61 169.52,461.33 187.63,448.17 165.25,448.17" fill="#fff"/>
<polygon points="221.67,426.89 214.75,448.17 192.37,448.17 210.48,461.33 203.56,482.61 221.67,469.46 239.77,482.61 232.86,461.33 250.96,448.17 228.58,448.17" fill="#fff"/>
<polygon points="285.00,426.89 278.08,448.17 255.71,448.17 273.81,461.33 266.90,482.61 285.00,469.46 303.10,482.61 296.19,461.33 314.29,448.17 291.92,448.17" fill="#fff"/>
<polygon points="348.33,426.89 341.42,448.17 319.04,448.17 337.14,461.33 330.23,482.61 348.33,469.46 366.44,482.61 359.52,461.33 377.63,448.17 355.25,448.17" fill="#fff"/>
<polygon points="63.33,480.74 56.42,502.02 34.04,502.02 52.14,515.17 45.23,536.46 63.33,523.30 81.44,536.46 74.52,515.17 92.63,502.02 70.25,502.02" fill="#fff"/>
<polygon points="126.67,480.74 119.75,502.02 97.37,502.02 115.48,515.17 108.56,536.46 126.67,523.30 144.77,536.46 137.86,515.17 155.96,502.02 133.58,502.02" fill="#fff"/>
<polygon points="190.00,480.74 183.08,502.02 160.71,502.02 178.81,515.17 171.90,536.46 190.00,523.30 208.10,536.46 201.19,515.17 219.29,502.02 196.92,502.02" fill="#fff"/>
<polygon points="253.33,480.74 246.42,502.02 224.04,502.02 242.14,515.17 235.23,536.46 253.33,523.30 271.44,536.46 264.52,515.17 282.63,502.02 260.25,502.02" fill="#fff"/>
<polygon points="316.67,480.74 309.75,502.02 287.37,502.02 305.48,515.17 298.56,536.46 316.67,523.30 334.77,536.46 327.86,515.17 345.96,502.02 323.58,502.02" fill="#fff"/>
</svg>